<svg xmlns="http://www.w3.org/2000/svg" xmlns:xlink="http://www.w3.org/1999/xlink" width="1200" zoomAndPan="magnify" viewBox="0 0 900 149.999998" height="200" preserveAspectRatio="xMidYMid meet" version="1.2"><g id="35468f095b"><path style="stroke:none;fill-rule:evenodd;fill:#ffffff;fill-opacity:1;" d="M 207.917969 42.984375 C 202.316406 41.269531 197.992188 40.972656 191.5 41.34375 C 174.78125 42.164062 160.226562 54.386719 160.75 71.6875 C 161.269531 87.933594 176.496094 99.195312 189.550781 99.269531 C 198.359375 99.34375 202.617188 98.820312 207.984375 96.8125 L 210.675781 95.835938 L 213.882812 79.890625 L 212.019531 83.390625 C 210.972656 85.257812 209.707031 88.460938 208.066406 90.324219 C 205.605469 93.085938 198.886719 95.320312 192.617188 95.394531 C 178.21875 95.621094 167.390625 84.289062 167.316406 70.570312 C 167.167969 56.261719 177.613281 46.195312 191.050781 45.523438 C 196.425781 45.226562 203.21875 46.5 204.785156 47.535156 C 206.574219 48.726562 207.320312 51.332031 208.371094 53.945312 L 210.160156 58.566406 L 210.085938 43.578125 L 207.925781 42.984375 Z M 207.917969 42.984375"></path><path style="stroke:none;fill-rule:evenodd;fill:#ffffff;fill-opacity:1;" d="M 262.996094 47.378906 C 262.550781 45.886719 262.324219 44.914062 261.878906 43.421875 L 256.882812 43.421875 C 256.433594 45.367188 256.136719 46.558594 255.539062 48.496094 C 254.199219 52.75 245.691406 75.414062 238.75 91.136719 C 238.226562 92.550781 237.855469 93.519531 237.183594 94.785156 C 236.4375 96.199219 233 97.167969 230.910156 97.988281 L 229.273438 98.582031 L 249.648438 98.582031 L 247.636719 97.765625 C 245.699219 96.945312 243.15625 96.5 242.640625 95.226562 C 242.492188 94.703125 243.164062 91.949219 243.757812 90.382812 L 248.984375 76.441406 L 267.417969 76.441406 L 272.414062 90.382812 C 272.933594 91.648438 273.753906 94.039062 273.53125 94.859375 C 273.085938 96.425781 270.019531 97.167969 268.453125 97.839844 L 266.515625 98.582031 L 288.601562 98.582031 L 287.035156 97.914062 C 284.871094 96.945312 281.734375 96.050781 280.988281 94.636719 C 280.316406 93.296875 279.796875 92.402344 279.273438 90.988281 C 277.261719 86.585938 266.136719 57.140625 263.003906 47.378906 Z M 258.140625 53.046875 L 265.679688 72.574219 L 250.53125 72.574219 Z M 258.140625 53.046875"></path><path style="stroke:none;fill-rule:evenodd;fill:#ffffff;fill-opacity:1;" d="M 422.128906 43.503906 L 408.550781 43.503906 L 410.042969 44.25 C 412.128906 45.144531 416.089844 46.113281 417.125 47.378906 C 417.871094 48.421875 417.945312 49.457031 417.945312 50.789062 L 417.945312 91.351562 C 417.945312 92.765625 417.644531 93.816406 416.75 94.933594 C 415.773438 96.199219 412.34375 97.167969 410.183594 97.988281 L 408.542969 98.582031 L 424.363281 98.582031 C 428.019531 98.582031 430.039062 99.105469 433.617188 98.957031 C 442.050781 98.660156 452.273438 92.246094 451.601562 83.078125 C 451.082031 76.96875 447.34375 72.789062 441.527344 70.855469 L 437.195312 69.4375 L 439.507812 68.171875 C 444.585938 65.425781 447.867188 61.410156 447.5625 55.699219 C 447.1875 48.117188 440.769531 43.804688 433.609375 43.503906 C 429.128906 43.347656 426.964844 43.503906 422.121094 43.503906 Z M 434.8125 95.082031 C 431.53125 95.828125 427.273438 95.382812 425.855469 94.636719 C 424.664062 93.964844 424.289062 92.691406 424.289062 91.351562 L 424.289062 71.898438 L 429.210938 71.898438 C 436.527344 71.898438 444.4375 74.800781 445.109375 82.035156 C 445.777344 88.363281 442.945312 93.140625 434.8125 95.074219 Z M 425.183594 47.75 C 426.003906 47.304688 429.367188 47.078125 431.605469 47.160156 C 436.449219 47.386719 441.15625 49.238281 441.902344 56.515625 C 442.722656 64.023438 434.519531 68.554688 427.800781 68.554688 L 424.289062 68.554688 L 424.289062 50.796875 C 424.289062 49.53125 424.214844 48.421875 425.183594 47.75 Z M 425.183594 47.75"></path><path style="stroke:none;fill-rule:evenodd;fill:#ffffff;fill-opacity:1;" d="M 491.6875 73.246094 L 493.1875 72.949219 C 497.734375 71.753906 506.316406 68.703125 506.316406 58.707031 C 506.316406 48.710938 498.628906 43.796875 491.917969 43.347656 C 487.4375 42.976562 484.453125 43.421875 480.421875 43.421875 L 466.84375 43.421875 L 468.484375 44.019531 C 470.644531 44.84375 474.304688 46.03125 475.351562 47.304688 C 476.089844 48.347656 476.171875 49.390625 476.171875 50.730469 L 476.171875 91.0625 C 476.171875 92.253906 476.320312 94.191406 475.417969 95.386719 C 474.746094 96.355469 470.496094 97.546875 468.476562 98.070312 L 466.761719 98.589844 L 492.058594 98.589844 L 490.417969 97.921875 C 488.332031 97.101562 484.523438 96.582031 483.476562 95.3125 C 482.5 94.121094 482.5 92.921875 482.5 91.359375 L 482.5 73.691406 L 484.515625 73.691406 L 495.40625 85.25 C 500.410156 90.613281 505.78125 97.101562 509.214844 98.375 C 512.125 99.417969 515.113281 100.089844 516.679688 99.789062 L 519.140625 99.195312 L 517.128906 98.21875 C 513.175781 96.207031 512.503906 95.613281 510.035156 93.230469 C 506.085938 89.503906 503.773438 86.667969 499.964844 82.414062 L 491.671875 73.246094 Z M 483.402344 47.378906 C 484.222656 46.855469 487.4375 46.632812 489.75 46.78125 C 494.59375 47.003906 499.820312 51.183594 500.34375 57.738281 C 500.941406 65.269531 494.222656 70.40625 486.019531 70.480469 L 482.507812 70.554688 L 482.507812 50.355469 C 482.507812 49.164062 482.433594 48.046875 483.402344 47.378906 Z M 483.402344 47.378906"></path><path style="stroke:none;fill-rule:evenodd;fill:#ffffff;fill-opacity:1;" d="M 583.40625 70.707031 C 583.035156 52.890625 569.007812 41.710938 552.8125 42.378906 C 537.363281 42.976562 524.679688 55.199219 524.679688 70.707031 C 524.679688 86.210938 537.148438 99.261719 552.738281 99.410156 C 569.382812 99.640625 583.636719 88.082031 583.40625 70.707031 Z M 530.796875 70.5625 C 530.644531 57.96875 539.160156 47.003906 552.738281 46.566406 C 566.464844 46.042969 577.21875 58.339844 577.21875 72.0625 C 577.21875 85.78125 565.871094 96.140625 553.195312 95.320312 C 540.28125 94.503906 531.027344 82.726562 530.800781 70.570312 Z M 530.796875 70.5625"></path><path style="stroke:none;fill-rule:nonzero;fill:#ffffff;fill-opacity:1;" d="M 601.914062 43.503906 L 598.78125 42.3125 L 599.152344 58.476562 L 599.972656 55.867188 C 600.71875 53.039062 601.242188 49.171875 602.882812 48.128906 C 603.554688 47.757812 604.148438 47.757812 604.894531 47.757812 L 616.460938 47.757812 L 616.460938 91.074219 C 616.460938 92.269531 616.757812 94.054688 615.722656 95.394531 C 614.976562 96.363281 610.792969 97.554688 608.78125 98.078125 L 607.066406 98.597656 L 632.363281 98.597656 L 630.722656 97.929688 C 628.636719 97.109375 624.824219 96.585938 623.78125 95.320312 C 622.8125 94.128906 622.8125 92.9375 622.8125 91.382812 L 622.8125 47.757812 L 632.664062 47.757812 C 634.078125 47.757812 634.980469 47.683594 636.25 48.128906 C 638.113281 48.800781 638.867188 52.367188 639.6875 54.824219 L 640.878906 58.765625 L 641.035156 42.089844 L 637.152344 43.503906 Z M 601.914062 43.503906"></path><path style="stroke:none;fill-rule:nonzero;fill:#ffffff;fill-opacity:1;" d="M 710.082031 50.730469 C 710.082031 49.089844 709.929688 47.898438 710.976562 46.632812 C 711.945312 45.441406 715.828125 44.914062 717.917969 44.09375 L 719.476562 43.421875 L 694.25 43.421875 L 695.972656 43.945312 C 697.988281 44.464844 702.160156 45.65625 702.914062 46.632812 C 703.882812 47.898438 703.660156 49.089844 703.660156 50.730469 L 703.660156 68.023438 L 671.792969 68.023438 L 671.792969 50.730469 C 671.792969 49.089844 671.792969 47.898438 672.769531 46.632812 C 673.8125 45.441406 677.617188 44.914062 679.710938 44.09375 L 681.351562 43.421875 L 656.050781 43.421875 L 657.765625 43.945312 C 659.78125 44.464844 663.964844 45.65625 664.710938 46.632812 C 665.753906 47.972656 665.453125 49.761719 665.453125 50.960938 L 665.453125 91.070312 C 665.453125 92.261719 665.753906 94.046875 664.710938 95.394531 C 663.964844 96.363281 659.78125 97.554688 657.765625 98.078125 L 656.050781 98.597656 L 681.351562 98.597656 L 679.710938 97.929688 C 677.625 97.109375 673.8125 96.585938 672.769531 95.320312 C 671.792969 94.128906 671.792969 92.929688 671.792969 91.367188 L 671.792969 72.582031 L 703.660156 72.582031 L 703.660156 91.367188 C 703.660156 92.929688 703.882812 94.128906 702.914062 95.394531 C 702.167969 96.363281 697.992188 97.554688 695.972656 98.078125 L 694.25 98.597656 L 719.476562 98.597656 L 717.917969 97.929688 C 715.828125 97.109375 711.945312 96.585938 710.976562 95.320312 C 710.007812 94.128906 710.15625 92.855469 710.15625 91.367188 L 710.082031 50.738281 Z M 710.082031 50.730469"></path><path style="stroke:none;fill-rule:nonzero;fill:#ffffff;fill-opacity:1;" d="M 771.550781 43.503906 L 734.164062 43.503906 L 735.878906 44.027344 C 737.890625 44.546875 742.074219 45.746094 742.820312 46.714844 C 743.789062 47.980469 743.566406 49.164062 743.566406 50.804688 L 743.566406 91.074219 C 743.566406 92.269531 743.789062 94.203125 742.820312 95.402344 C 742.074219 96.371094 737.890625 97.5625 735.878906 98.085938 L 734.164062 98.605469 L 773.710938 98.605469 L 774.085938 86.53125 L 773.117188 88.839844 C 772.140625 91.074219 771.617188 94.0625 770.347656 94.734375 C 769.222656 95.179688 768.335938 94.957031 767.136719 94.957031 L 754.898438 94.957031 C 753.484375 94.957031 752.515625 95.179688 751.171875 94.585938 C 750.203125 94.136719 749.90625 91.894531 749.90625 90.703125 L 749.90625 72.367188 L 760.871094 72.367188 C 762.511719 72.367188 763.558594 72.300781 765.054688 73.117188 C 766.546875 73.9375 767.070312 76.621094 767.820312 78.628906 L 768.484375 80.34375 L 768.484375 62.847656 L 766.917969 66.042969 C 766.546875 66.855469 766.175781 67.300781 765.429688 67.898438 C 764.160156 68.867188 762.445312 68.640625 760.507812 68.640625 L 749.90625 68.640625 L 749.90625 50.8125 C 749.90625 49.628906 749.828125 48.285156 750.351562 47.765625 C 751.097656 47.019531 752.589844 47.175781 754.078125 47.175781 L 763.257812 47.175781 C 764.75 47.175781 766.472656 47.324219 767.8125 48.136719 C 769.378906 49.179688 769.679688 50.8125 770.425781 52.75 L 771.46875 55.71875 L 771.542969 43.527344 Z M 771.550781 43.503906"></path><path style="stroke:none;fill-rule:evenodd;fill:#ffffff;fill-opacity:1;" d="M 814.535156 73.246094 L 816.027344 72.949219 C 820.582031 71.753906 829.164062 68.703125 829.164062 58.707031 C 829.164062 48.710938 821.476562 43.796875 814.765625 43.347656 C 810.285156 42.976562 807.300781 43.421875 803.269531 43.421875 L 789.691406 43.421875 L 791.332031 44.019531 C 793.492188 44.84375 797.15625 46.03125 798.199219 47.304688 C 798.945312 48.347656 799.019531 49.390625 799.019531 50.730469 L 799.019531 91.0625 C 799.019531 92.253906 799.175781 94.191406 798.273438 95.386719 C 797.609375 96.355469 793.351562 97.546875 791.332031 98.070312 L 789.617188 98.589844 L 814.914062 98.589844 L 813.273438 97.921875 C 811.1875 97.101562 807.378906 96.582031 806.332031 95.3125 C 805.363281 94.121094 805.363281 92.921875 805.363281 91.359375 L 805.363281 73.691406 L 807.375 73.691406 L 818.269531 85.25 C 823.265625 90.613281 828.632812 97.101562 832.070312 98.375 C 834.980469 99.417969 837.96875 100.089844 839.535156 99.789062 L 841.996094 99.195312 L 839.984375 98.21875 C 836.023438 96.207031 835.359375 95.613281 832.890625 93.230469 C 828.941406 89.503906 826.628906 86.667969 822.820312 82.414062 L 814.527344 73.246094 Z M 806.25 47.378906 C 807.070312 46.855469 810.285156 46.632812 812.597656 46.78125 C 817.441406 47.003906 822.671875 51.183594 823.191406 57.738281 C 823.789062 65.269531 817.078125 70.40625 808.867188 70.480469 L 805.355469 70.554688 L 805.355469 50.355469 C 805.355469 49.164062 805.28125 48.046875 806.25 47.378906 Z M 806.25 47.378906"></path><path style="stroke:none;fill-rule:nonzero;fill:#ffffff;fill-opacity:1;" d="M 885.289062 43.578125 C 883.199219 42.984375 879.242188 42.3125 875.289062 42.3125 C 866.410156 42.386719 857.824219 48.203125 858.265625 57.894531 C 858.789062 66.988281 864.386719 69.148438 872.074219 73.402344 C 878.195312 76.761719 884.09375 78.691406 884.542969 85.476562 C 884.914062 91.886719 878.496094 96.214844 871.933594 95.46875 C 868.054688 95.097656 863.722656 94.054688 862.160156 89.726562 L 859.625 83.167969 L 859.996094 97.332031 L 863.203125 98.152344 C 864.851562 98.523438 868.800781 99.566406 872.386719 99.566406 C 882.761719 99.492188 890.148438 94.054688 889.992188 84.058594 C 889.769531 74.964844 881.707031 71.464844 873.648438 67.359375 C 870.441406 65.796875 863.722656 62.585938 863.648438 56.769531 C 863.648438 50.804688 868.652344 45.960938 874.992188 46.261719 C 879.539062 46.492188 882.378906 47.238281 883.796875 50.804688 L 886.929688 58.410156 L 886.777344 44.019531 L 885.289062 43.570312 Z M 885.289062 43.578125"></path><path style="stroke:none;fill-rule:evenodd;fill:#ffffff;fill-opacity:1;" d="M 316.988281 19.386719 C 316.988281 19.386719 301.074219 25.191406 301.3125 46.386719 C 301.582031 70.273438 323.472656 78.078125 323.183594 97.921875 C 322.855469 119.765625 299.351562 125.21875 299.351562 125.21875 C 299.351562 125.21875 316.914062 119.410156 317.179688 100.371094 C 317.464844 80.523438 295.632812 72.714844 295.3125 48.835938 C 295 25.085938 316.988281 19.386719 316.988281 19.386719 Z M 316.988281 19.386719"></path><path style="stroke:none;fill-rule:evenodd;fill:#ffffff;fill-opacity:1;" d="M 354.925781 19.386719 C 354.925781 19.386719 339.011719 25.191406 339.25 46.386719 C 339.519531 70.273438 361.417969 78.078125 361.121094 97.921875 C 360.792969 119.765625 337.289062 125.21875 337.289062 125.21875 C 337.289062 125.21875 354.851562 119.410156 355.117188 100.371094 C 355.394531 80.523438 333.5625 72.714844 333.25 48.835938 C 332.9375 25.085938 354.925781 19.386719 354.925781 19.386719 Z M 354.925781 19.386719"></path><path style="stroke:none;fill-rule:nonzero;fill:#00529b;fill-opacity:1;" d="M 76.867188 0.550781 L 149.003906 0.550781 L 149.003906 72.613281 L 76.867188 72.613281 Z M 76.867188 0.550781"></path><path style="stroke:none;fill-rule:nonzero;fill:#ffffff;fill-opacity:1;" d="M 142.710938 53.960938 C 142.710938 53.960938 139.265625 45.039062 127.277344 45.382812 C 113.765625 45.769531 110.464844 57.320312 99.234375 57.335938 C 85.136719 57.351562 82.644531 45.054688 82.644531 45.054688 C 82.644531 45.054688 87.007812 54.007812 97.789062 53.96875 C 109.015625 53.933594 112.3125 42.171875 125.832031 42.015625 C 140.816406 41.84375 142.710938 53.960938 142.710938 53.960938 Z M 142.710938 53.960938"></path><path style="stroke:none;fill-rule:nonzero;fill:#ffffff;fill-opacity:1;" d="M 142.710938 27.996094 C 142.710938 27.996094 139.265625 19.074219 127.277344 19.417969 C 113.765625 19.804688 110.464844 31.355469 99.234375 31.371094 C 85.136719 31.386719 82.644531 19.082031 82.644531 19.082031 C 82.644531 19.082031 87.007812 28.042969 97.789062 28.003906 C 109.015625 27.96875 112.3125 16.199219 125.832031 16.050781 C 140.816406 15.878906 142.710938 27.996094 142.710938 27.996094 Z M 142.710938 27.996094"></path><path style="stroke:none;fill-rule:nonzero;fill:#c70751;fill-opacity:1;" d="M 76.867188 76.34375 L 149.003906 76.34375 L 149.003906 148.40625 L 76.867188 148.40625 Z M 76.867188 76.34375"></path><path style="stroke:none;fill-rule:nonzero;fill:#ffffff;fill-opacity:1;" d="M 130.335938 82.636719 C 130.335938 82.636719 121.402344 86.078125 121.746094 98.054688 C 122.132812 111.550781 133.699219 114.851562 133.710938 126.066406 C 133.726562 140.152344 121.410156 142.640625 121.410156 142.640625 C 121.410156 142.640625 130.371094 138.28125 130.335938 127.519531 C 130.296875 116.304688 118.523438 113.011719 118.367188 99.507812 C 118.203125 84.535156 130.328125 82.644531 130.328125 82.644531 Z M 130.335938 82.636719"></path><path style="stroke:none;fill-rule:nonzero;fill:#ffffff;fill-opacity:1;" d="M 104.34375 82.636719 C 104.34375 82.636719 95.410156 86.078125 95.753906 98.054688 C 96.140625 111.550781 107.703125 114.851562 107.71875 126.066406 C 107.742188 140.152344 95.425781 142.640625 95.425781 142.640625 C 95.425781 142.640625 104.386719 138.28125 104.355469 127.519531 C 104.320312 116.304688 92.539062 113.011719 92.390625 99.507812 C 92.21875 84.535156 104.351562 82.644531 104.351562 82.644531 Z M 104.34375 82.636719"></path><path style="stroke:none;fill-rule:nonzero;fill:#00529b;fill-opacity:1;" d="M 1.125 76.34375 L 73.265625 76.34375 L 73.265625 148.40625 L 1.125 148.40625 Z M 1.125 76.34375"></path><path style="stroke:none;fill-rule:nonzero;fill:#ffffff;fill-opacity:1;" d="M 66.964844 129.753906 C 66.964844 129.753906 63.519531 120.832031 51.53125 121.175781 C 38.019531 121.5625 34.714844 133.113281 23.488281 133.128906 C 9.386719 133.144531 6.902344 120.847656 6.902344 120.847656 C 6.902344 120.847656 11.265625 129.800781 22.039062 129.761719 C 33.269531 129.722656 36.574219 117.964844 50.082031 117.808594 C 65.0625 117.636719 66.964844 129.753906 66.964844 129.753906 Z M 66.964844 129.753906"></path><path style="stroke:none;fill-rule:nonzero;fill:#ffffff;fill-opacity:1;" d="M 66.964844 103.789062 C 66.964844 103.789062 63.519531 94.867188 51.53125 95.210938 C 38.019531 95.597656 34.714844 107.148438 23.488281 107.164062 C 9.386719 107.179688 6.902344 94.882812 6.902344 94.882812 C 6.902344 94.882812 11.265625 103.835938 22.039062 103.804688 C 33.269531 103.769531 36.574219 92 50.082031 91.851562 C 65.0625 91.679688 66.964844 103.796875 66.964844 103.796875 Z M 66.964844 103.789062"></path><path style="stroke:none;fill-rule:nonzero;fill:#c70751;fill-opacity:1;" d="M 1.132812 0.550781 L 73.273438 0.550781 L 73.273438 72.613281 L 1.132812 72.613281 Z M 1.132812 0.550781"></path><path style="stroke:none;fill-rule:nonzero;fill:#ffffff;fill-opacity:1;" d="M 54.601562 6.84375 C 54.601562 6.84375 45.667969 10.285156 46.011719 22.253906 C 46.398438 35.757812 57.964844 39.050781 57.980469 50.269531 C 57.996094 64.351562 45.683594 66.832031 45.683594 66.832031 C 45.683594 66.832031 54.644531 62.476562 54.609375 51.710938 C 54.570312 40.488281 42.796875 37.195312 42.640625 23.699219 C 42.46875 8.730469 54.601562 6.835938 54.601562 6.835938 Z M 54.601562 6.84375"></path><path style="stroke:none;fill-rule:nonzero;fill:#ffffff;fill-opacity:1;" d="M 28.609375 6.84375 C 28.609375 6.84375 19.675781 10.285156 20.019531 22.253906 C 20.40625 35.757812 31.972656 39.050781 31.988281 50.269531 C 32 64.351562 19.691406 66.832031 19.691406 66.832031 C 19.691406 66.832031 28.652344 62.476562 28.617188 51.710938 C 28.578125 40.488281 16.796875 37.195312 16.648438 23.699219 C 16.476562 8.730469 28.609375 6.835938 28.609375 6.835938 Z M 28.609375 6.84375"></path></g></svg>